# AST/ASF file generated using VICON BodyLanguage
# -----------------------------------------------
:version 1.10
:name VICON
:units
  mass 1.0
  length 0.1
  angle deg
:documentation
   .ast/.asf automatically generated from VICON data using
   VICON BodyBuilder and BodyLanguage model FULLBODY5.MOD
:root
   order TX TY TZ RZ RY RX
   axis XYZ
   position 0 0 0  
   orientation 0 -0 0 
:bonedata
  begin
     id 1 
     name lhipjoint
     direction 0.961525 -0.229516 0.150972 
     length 0.502153 
     axis 0 -0 0  XYZ
  end
  begin
     id 2 
     name lfemur
     direction 0.173648 -0.984808 0  
     length 1.83052  
     axis 0 -0 10  XYZ
    dof rx ry rz
    limits (-180.0 180.0)
           (-180.0 180.0)
           (-180.0 180.0)
  end
  begin
     id 3 
     name ltibia
     direction 0.173629 -0.984811 0   
     length 1.50296   
     axis 0 -0 10   XYZ
    dof rx ry rz
    limits (-180.0 180.0)
           (-180.0 180.0)
           (-180.0 180.0)
  end
  begin
     id 4 
     name lfoot
     direction 7.59329e-012 -0.227408 0.9738   
     length 0.574743   
     axis -90 -1.73656e-015 10   XYZ
    dof rx ry rz
    limits (-180.0 180.0)
           (-180.0 180.0)
           (-180.0 180.0)
  end
  begin
     id 5 
     name ltoes
     direction 7.79885e-012 -4.41741e-011 1   
     length 0.28489   
     axis -90 -1.73656e-015 10   XYZ
    dof rx ry rz
    limits (-180.0 180.0)
           (-180.0 180.0)
           (-180.0 180.0)
  end
  begin
     id 6 
     name rhipjoint
     direction -0.970498 -0.201437 0.132502   
     length 0.572149  
     axis 0 -0 0  XYZ 
  end
  begin
     id 7 
     name rfemur
     direction -0.173648 -0.984808 0   
     length 1.71866   
     axis 0 -0 -10   XYZ
    dof rx ry rz
    limits (-180.0 180.0)
           (-180.0 180.0)
           (-180.0 180.0)
  end
  begin
     id 8 
     name rtibia
     direction -0.173624 -0.984812 0   
     length 1.42623   
     axis 0 -0 -10   XYZ
    dof rx ry rz
    limits (-180.0 180.0)
           (-180.0 180.0)
           (-180.0 180.0)
 end
 begin
     id 9 
     name rfoot
     direction -7.12931e-012 -0.404275 0.914637   
     length 0.524692  
     axis -90 1.73656e-015 -10   XYZ
    dof rx ry rz
    limits (-180.0 180.0)
           (-180.0 180.0)
           (-180.0 180.0)
  end
  begin
     id 10 
     name rtoes
     direction -7.79289e-012 -4.41454e-011 1   
     length 0.254983   
     axis -90 1.73656e-015 -10   XYZ
    dof rx ry rz
    limits (-180.0 180.0)
           (-180.0 180.0)
           (-180.0 180.0)
  end
  begin
     id 11 
     name lowerback
     direction -0.0214086 0.993738 0.109665   
     length 0.417614   
     axis 0 -0 0   XYZ
    dof rx ry rz
    limits (-180.0 180.0)
           (-180.0 180.0)
           (-180.0 180.0)
  end
  begin
     id 12 
     name upperback
     direction 8.15962e-005 0.99996 0.00893412   
     length 0.419234   
     axis 0 -0 0   XYZ
    dof rx ry rz
    limits (-180.0 180.0)
           (-180.0 180.0)
           (-180.0 180.0)
  end
  begin
     id 13 
     name thorax
     direction 0.00826031 0.999067 -0.0423848   
     length 0.424697   
     axis 0 -0 0   XYZ
    dof rx ry rz
    limits (-180.0 180.0)
           (-180.0 180.0)
           (-180.0 180.0)
  end
  begin
     id 14 
     name lowerneck
     direction -0.0196262 0.994272 -0.105058   
     length 0.355877   
     axis 0 -0 0   XYZ
    dof rx ry rz
    limits (-180.0 180.0)
           (-180.0 180.0)
           (-180.0 180.0)
  end
  begin
     id 15 
     name upperneck
     direction 0.000117372 0.999091 0.0426261   
     length 0.351054   
     axis 0 -0 0   XYZ
    dof rx ry rz
    limits (-180.0 180.0)
           (-180.0 180.0)
           (-180.0 180.0)
  end
  begin
     id 16
     name head
     direction 0.00157618 0.999651 0.0263619  
     length 0.374844  
     axis 0 -0 0   XYZ
    dof rx ry rz
    limits (-180.0 180.0)
           (-180.0 180.0)
           (-180.0 180.0)
  end
  begin
     id 17 
     name lshoulderjoint
     direction 0.981627 -0.190809 0  
     length 0.701763  
     axis 0 -0 -11   XYZ
    dof rx ry rz
    limits (-180.0 180.0)
           (-180.0 180.0)
           (-180.0 180.0)
  end
  begin
     id 18 
     name lhumerus
     direction 0.48481 -0.87462 -1.80676e-026   
     length 0.994704   
     axis -180 5.14477e-009 -151   XYZ
    dof rx ry rz
    limits (-180.0 180.0)
           (-180.0 180.0)
           (-180.0 180.0)
  end
  begin
     id 19
     name lradius
     direction 0.48481 -0.87462 -3.2569e-026   
     length 0.617638   
     axis -180 5.14477e-009 -151   XYZ
    dof rx ry rz
    limits (-180.0 180.0)
           (-180.0 180.0)
           (-180.0 180.0)
  end
  begin
     id 20
     name lwrist
     direction 0.48481 -0.87462 -6.73202e-026   
     length 0.308819   
     axis -180 5.14477e-009 -151   XYZ
    dof rx ry rz
    limits (-180.0 180.0)
           (-180.0 180.0)
           (-180.0 180.0)
  end
  begin
     id 21 
     name lhand
     direction 0.478366 -0.863761 -0.158376   
     length 0.291656   
     axis -180 5.14477e-009 -151   XYZ
    dof rx ry rz
    limits (-180.0 180.0)
           (-180.0 180.0)
           (-180.0 180.0)
  end
  begin
     id 22 
     name rshoulderjoint
     direction -0.981627 -0.190809 0   
     length 0.66654  
     axis 0 -0 11   XYZ 
    dof rx ry rz
    limits (-180.0 180.0)
           (-180.0 180.0)
           (-180.0 180.0)
  end
  begin
     id 23 
     name rhumerus
     direction -0.48481 -0.87462 1.77576e-026  
     length 1.15089   
     axis 180 5.14477e-009 151   XYZ
    dof rx ry rz
    limits (-180.0 180.0)
           (-180.0 180.0)
           (-180.0 180.0)
  end
  begin
     id 24 
     name rradius
     direction -0.48481 -0.87462 3.79421e-026   
     length 0.613887   
     axis 180 5.14477e-009 151   XYZ
    dof rx ry rz
    limits (-180.0 180.0)
           (-180.0 180.0)
           (-180.0 180.0)
  end
  begin
     id 25 
     name rwrist
     direction -0.48481 -0.87462 5.43623e-026   
     length 0.306944   
     axis 180 5.14477e-009 151   XYZ
    dof rx ry rz
    limits (-180.0 180.0)
           (-180.0 180.0)
           (-180.0 180.0)
  end
  begin
     id 26
     name rhand
     direction -0.479273 -0.864638 -0.150661   
     length 0.306429   
     axis 180 5.14477e-009 151   XYZ
    dof rx ry rz
    limits (-180.0 180.0)
           (-180.0 180.0)
           (-180.0 180.0)
  end
:hierarchy
  begin
    root lhipjoint rhipjoint lowerback 
    lhipjoint lfemur
    lfemur ltibia
    ltibia lfoot
    lfoot ltoes
    rhipjoint rfemur
    rfemur rtibia
    rtibia rfoot
    rfoot rtoes
    lowerback upperback
    upperback thorax
    thorax lowerneck lshoulderjoint rshoulderjoint
    lowerneck upperneck
    upperneck head
    lshoulderjoint lhumerus
    lhumerus lradius
    lradius lwrist
    lwrist lhand
    rshoulderjoint rhumerus
    rhumerus rradius
    rradius rwrist
    rwrist rhand
  end

:FULLY-SPECIFIED
:DEGREES
1211
root -10.1574 3.68118 -0.964106 -6.64175 43.459 19.6317
lowerback -12.8156 -1.10721 -0.629232
upperback -3.81013 -1.33481 0.40904
thorax 3.20832 -0.634055 0.578222
lowerneck 13.2088 7.81425 4.8568
upperneck -0.274407 10.8449 -13.2453
head -1.21735 5.90231 -5.24169
rshoulderjoint 1.46843 -3.69641 -32.6838
rhumerus -10.233 -20.2336 -51.7499
rradius 35.6779 3.27597e-013 -8.22969e-014
rwrist 9.15095e-013 8.73944 -6.45192e-013
rhand 7.30728 -7.29666 35.5238
lshoulderjoint 3.21026 11.4539 26.7723
lhumerus 1.50172 7.22234 52.3451
lradius 18.9391 -2.35361e-013 3.65764e-014
lwrist 7.96726e-013 -9.58762 3.45543e-013
lhand 23.9431 9.22188 -16.6511
rfemur -22.2554 -26.0982 15.7488
rtibia 29.1278 -6.36111e-015 -4.07509e-015
rfoot -12.597 13.0061 -44.4616
rtoes 6.67916e-014 -1.49486e-013 0
lfemur -18.076 -21.9871 -17.1978
ltibia 4.69877 -1.90833e-014 3.65764e-014
lfoot -1.77205 -4.42158 25.8616
ltoes 1.10574e-013 -1.63898e-013 -4.77083e-014
1212
root -10.1546 3.67952 -0.964684 -6.74934 44.5718 19.6254
lowerback -12.5069 -1.15105 -0.918344
upperback -3.71215 -1.36216 0.442247
thorax 3.1505 -0.649041 0.775818
lowerneck 12.7739 7.68663 4.43139
upperneck -0.105704 10.6267 -12.9652
head -1.15598 5.76822 -5.0593
rshoulderjoint 1.43207 -3.58831 -32.7736
rhumerus -10.0212 -20.1869 -51.8488
rradius 36.1382 0 1.07344e-014
rwrist 5.43283e-013 8.50021 -5.467e-014
rhand 7.43521 -6.88166 35.4486
lshoulderjoint 3.20728 11.5417 26.6458
lhumerus 1.60386 6.92608 52.334
lradius 18.8567 8.26944e-014 5.08889e-014
lwrist 3.67557e-013 -9.4364 1.12846e-013
lhand 24.155 9.07515 -16.6466
rfemur -23.1117 -25.6399 15.2381
rtibia 31.6972 0 -1.59028e-014
rfoot -12.3106 13.3388 -44.6544
rtoes -3.97569e-014 -8.90555e-014 1.90833e-014
lfemur -17.8342 -22.7089 -17.3166
ltibia 4.62954 -9.54166e-015 0
lfoot -1.6491 -4.5351 25.4935
ltoes 5.65542e-014 -4.57205e-015 -1.90833e-014
1213
root -10.1513 3.67767 -0.96622 -7.06114 45.5398 19.8674
lowerback -12.3745 -1.10933 -1.00913
upperback -3.68043 -1.29457 0.389233
thorax 3.11075 -0.61556 0.783828
lowerneck 12.6142 7.48675 4.29903
upperneck -0.104582 10.34 -12.8358
head -1.17012 5.61693 -4.98638
rshoulderjoint 1.42033 -3.57174 -32.7025
rhumerus -9.8494 -19.7728 -51.895
rradius 36.5575 -2.38542e-013 -1.66979e-014
rwrist 8.52233e-014 8.51113 2.4763e-013
rhand 7.30487 -6.95847 35.508
lshoulderjoint 3.16755 11.476 26.5441
lhumerus 1.59724 6.76054 52.2235
lradius 18.8983 -5.40694e-014 -6.67916e-014
lwrist 3.68718e-013 -10.4663 -2.04169e-014
lhand 24.0268 10.0701 -16.676
rfemur -24.0791 -24.9711 14.8086
rtibia 34.0443 -5.40694e-014 -1.94809e-014
rfoot -12.1282 13.9314 -44.6583
rtoes -2.8625e-014 -1.08139e-013 -1.94014e-013
lfemur -17.781 -23.337 -17.3422
ltibia 4.48975 -4.45278e-014 -1.31198e-014
lfoot -1.43791 -4.72511 25.1342
ltoes 1.33583e-013 -2.57426e-014 -3.18055e-015
1214
root -10.1523 3.67744 -0.968636 -7.04946 46.3984 19.8567
lowerback -11.8375 -1.11403 -1.40338
upperback -3.68696 -1.26267 0.41283
thorax 2.81915 -0.599066 1.04382
lowerneck 12.6354 7.34783 4.0114
upperneck -0.184961 10.107 -12.7278
head -1.23801 5.50195 -4.90861
rshoulderjoint 1.31585 -3.28986 -32.8144
rhumerus -9.77241 -19.4831 -51.9352
rradius 36.9742 -3.21236e-013 2.14687e-014
rwrist 9.3714e-013 8.54636 2.79815e-013
rhand 7.24406 -7.08294 35.4727
lshoulderjoint 3.17001 11.5539 26.457
lhumerus 1.57444 6.60982 52.246
lradius 18.9724 5.12069e-013 -2.46493e-014
lwrist 6.29011e-013 -9.59666 -2.7741e-013
lhand 24.3639 9.29772 -16.6931
rfemur -24.8272 -23.8538 14.1814
rtibia 36.1268 1.27222e-014 2.38542e-015
rfoot -12.004 14.6134 -44.6979
rtoes -2.16278e-013 1.59028e-014 -3.29187e-013
lfemur -17.6283 -23.7921 -17.5043
ltibia 4.35758 6.36111e-015 -2.82274e-014
lfoot -1.14574 -5.11919 24.753
ltoes 6.88789e-014 3.77442e-014 2.09917e-013
